<svg xmlns="http://www.w3.org/2000/svg" xmlns:xlink="http://www.w3.org/1999/xlink" id="svg1334" version="1.1" viewBox="0 0 200 200" height="200mm" width="200mm"><defs id="defs1328"><linearGradient y2="25.571" x2="80.156" y1="60.775" x1="91.73" gradientTransform="rotate(-8.634 103.467 101.757)" gradientUnits="userSpaceOnUse" id="linearGradient1259" xlink:href="#linearGradient968"/><linearGradient id="linearGradient968"><stop id="stop964" offset="0" stop-color="#a9149d" stop-opacity="1"/><stop id="stop966" offset="1" stop-color="#9b1390" stop-opacity="1"/></linearGradient><linearGradient gradientTransform="matrix(1.12543 0 0 1.08924 -17.754 -17.432)" gradientUnits="userSpaceOnUse" y2="177.459" x2="111.947" y1="171.381" x1="111.062" id="linearGradient1516" xlink:href="#linearGradient1514"/><linearGradient id="linearGradient1514"><stop id="stop1510" offset="0" stop-color="#b60647" stop-opacity="1"/><stop id="stop1512" offset="1" stop-color="#d40753" stop-opacity="1"/></linearGradient><linearGradient y2="81.286" x2="379.063" y1="105.26" x1="400.922" gradientTransform="matrix(.89607 -.13606 .15365 1.01187 -250.877 99.16)" gradientUnits="userSpaceOnUse" id="linearGradient1261" xlink:href="#linearGradient925"/><linearGradient id="linearGradient925"><stop id="stop921" offset="0" stop-color="#821079" stop-opacity="1"/><stop id="stop923" offset="1" stop-color="#9a138e" stop-opacity="1"/></linearGradient><linearGradient xlink:href="#linearGradient1368" id="linearGradient1345" x1="97.285" y1="128.415" x2="103.612" y2="150.738" gradientUnits="userSpaceOnUse" gradientTransform="rotate(-5.8 35.276 152.375)"/><linearGradient id="linearGradient1368"><stop id="stop1364" offset="0" stop-color="#d71cc7" stop-opacity="1"/><stop id="stop1366" offset="1" stop-color="#8f1284" stop-opacity="1"/></linearGradient></defs><g transform="translate(-9.291 .891)" id="layer1"><g id="g1268" transform="matrix(.849 0 0 .83592 19.21 -20.927)" stroke-width="1.187" fill-opacity="1"><path d="M173.06 232.992c0 12.403-11.478 14.604-24.371 14.604-12.893 0-22.32-2.201-22.32-14.604 0-12.404 10.452-22.458 23.346-22.458 12.893 0 23.345 10.055 23.345 22.458" id="path1199" fill="#be18b1" stroke="none" stroke-width=".475" stroke-miterlimit="4" stroke-dasharray="none" stroke-opacity="1"/><path d="M151.954 157.17c37.646-18.07 60.636-47.845 38.94-83.367 0 0 8.858 11.083 12.424 22.169 12.988 40.2-20.003 76.775-51.7 82.344z" id="path1201" fill="#e42dd6" fill-rule="evenodd" stroke="none" stroke-width=".314" stroke-linecap="butt" stroke-linejoin="miter" stroke-opacity="1"/><path d="M182.247 188.998c0 39.758-32.166 60.993-72.255 60.993-40.09 0-72.923-21.235-72.923-60.993s32.5-71.988 72.59-71.988c40.089 0 72.588 32.23 72.588 71.988" id="path1203" fill="#e421d4" stroke="none" stroke-width=".475" stroke-miterlimit="4" stroke-dasharray="none" stroke-opacity="1"/><path id="path1205" d="M180.66 187.41c0 39.758-32.166 60.993-72.256 60.993s-72.922-21.235-72.922-60.993 32.499-71.988 72.589-71.988c40.09 0 72.588 32.23 72.588 71.988" fill="#ea55de" stroke="none" stroke-width=".475" stroke-miterlimit="4" stroke-dasharray="none" stroke-opacity="1"/><g transform="translate(1103.048 1245.927)" id="g1215" stroke-width=".475" stroke="none" stroke-miterlimit="4" stroke-dasharray="none" stroke-opacity="1"><path id="path1207" d="M-1001.303-1001.424c0 14.092-13.04 16.593-27.69 16.593-14.648 0-25.359-2.501-25.359-16.593s11.876-25.516 26.525-25.516 26.524 11.424 26.524 25.516" fill="#be18b1"/><path id="path1209" d="M-1025.59-988.184c0 5.025-4.22 5.484-8.063 5.484-3.842 0-5.852-.459-5.852-5.484s3.115-9.099 6.957-9.099c3.843 0 6.958 4.074 6.958 9.099z" opacity="1" fill="#eb61e0"/><path id="path1211" d="M-1012.989-990.073c0 3.576-5.808 4.313-8.543 4.313-2.735 0-1.36-.737-1.36-4.313 0-3.576 2.218-6.475 4.952-6.475 2.735 0 4.951 2.899 4.951 6.475" opacity="1" fill="#eb61e0"/><path id="path1213" d="M-1040.276-993.431c0 3.576-1.373 6.11-4.107 6.11-2.735 0-5.796-2.534-5.796-6.11 0-3.577 2.217-6.476 4.952-6.476 2.734 0 4.951 2.9 4.951 6.476" opacity="1" fill="#eb61e0"/></g><g transform="rotate(-4.366 15879.145 -15588.746)" id="g1225" stroke-width=".475" stroke="none" stroke-miterlimit="4" stroke-dasharray="none" stroke-opacity="1"><path d="M-1001.303-1001.424c0 14.092-13.04 16.593-27.69 16.593-14.648 0-25.359-2.501-25.359-16.593s11.876-25.516 26.525-25.516 26.524 11.424 26.524 25.516" id="path1217" fill="#be18b1"/><path d="M-1025.59-988.184c0 5.025-4.22 5.484-8.063 5.484-3.842 0-5.852-.459-5.852-5.484s3.115-9.099 6.957-9.099c3.843 0 6.958 4.074 6.958 9.099z" id="path1219" opacity="1" fill="#eb61e0"/><path d="M-1012.989-990.073c0 3.576-5.808 4.313-8.543 4.313-2.735 0-1.36-.737-1.36-4.313 0-3.576 2.218-6.475 4.952-6.475 2.735 0 4.951 2.899 4.951 6.475" id="path1221" opacity="1" fill="#eb61e0"/><path d="M-1040.276-993.431c0 3.576-1.373 6.11-4.107 6.11-2.735 0-5.796-2.534-5.796-6.11 0-3.577 2.217-6.476 4.952-6.476 2.734 0 4.951 2.9 4.951 6.476" id="path1223" opacity="1" fill="#eb61e0"/></g><path d="M170.182 167.92c-3.593 5.625.87 25.667-4.163 30.051-5.032 4.385-24.274-2.78-30.337.008-6.064 2.79-13.145 22.062-19.75 23.03-6.603.967-18.916-15.463-25.525-16.395-6.61-.932-22.986 11.453-29.065 8.697-6.078-2.757-7.554-23.236-12.61-27.593-5.056-4.357-25.529-2.793-29.152-8.398-3.624-5.605 6.207-23.63 4.31-30.03-1.899-6.398-19.967-16.15-19.985-22.825-.019-6.674 17.997-16.524 19.86-22.933 1.863-6.409-8.065-24.382-4.472-30.006 3.594-5.625 24.075-4.17 29.107-8.555s6.397-24.872 12.46-27.66c6.064-2.79 22.508 9.506 29.112 8.539 6.603-.968 18.828-17.465 25.437-16.533 6.609.932 13.794 20.166 19.873 22.922 6.078 2.756 25.281-4.513 30.337-.156 5.056 4.357.702 24.423 4.326 30.028 3.623 5.605 23.708 9.872 25.605 16.27 1.898 6.4-12.613 20.926-12.595 27.6.018 6.674 14.608 21.122 12.745 27.53-1.863 6.41-21.924 10.785-25.518 16.41z" id="path1227" transform="rotate(-8.634 102.56 108.668)" fill="#7c1074" stroke="none" stroke-width=".475" stroke-miterlimit="4" stroke-dasharray="none" stroke-opacity="1"/><path d="M169.124 165.804c-3.593 5.624.87 25.666-4.163 30.05-5.032 4.385-24.274-2.78-30.338.009-6.063 2.789-13.145 22.061-19.749 23.029-6.603.968-18.917-15.463-25.526-16.395-6.609-.932-22.985 11.453-29.064 8.697-6.079-2.756-7.554-23.236-12.61-27.593-5.056-4.357-25.53-2.792-29.153-8.397-3.623-5.605 6.207-23.631 4.31-30.03-1.898-6.399-19.967-16.151-19.985-22.825-.018-6.675 17.998-16.524 19.86-22.933 1.864-6.41-8.064-24.382-4.47-30.007 3.592-5.624 24.073-4.17 29.106-8.555 5.032-4.384 6.397-24.871 12.46-27.66 6.064-2.79 22.508 9.507 29.111 8.54 6.604-.969 18.828-17.466 25.437-16.534 6.61.932 13.795 20.166 19.874 22.923 6.078 2.756 25.28-4.513 30.337-.156 5.056 4.357.702 24.422 4.325 30.027 3.624 5.605 23.708 9.872 25.606 16.27 1.898 6.4-12.613 20.926-12.595 27.6.018 6.674 14.607 21.122 12.744 27.531-1.863 6.41-21.924 10.784-25.517 16.409z" id="path1229" transform="rotate(-8.634 102.56 108.668)" fill="#be18b1" stroke="none" stroke-width=".475" stroke-miterlimit="4" stroke-dasharray="none" stroke-opacity="1"/><path d="M100.657 24.433c-11.524 4.075-13.962 22.148-23.934 20.543-10.807-1.374-20.533-12.889-27.592-5.358-6.28 8.075-.826 21.028-7.171 29.988-11.28 8.38-29.793 5.904-28.102 17.38 4.416 10.742 20.979 12.658 23.515 7.857 2.346-4.443 4.76-15.663 9.268-17.311 8.584-3.138 16.81.506 22.694-4.177 2.278-7.293 2.54-14.786 10.023-16.034 11.022-1.837 21.139 5.07 29.08-1.651 4.515-3.228 8.721-2.902 12.739-2.682 1.249.068 13.79 15.505 20.876 18.91 5.418 2.602 11.21-1.726 17.626 2.033 6.067 3.554 3.057 19.656 7.253 23.886 2.812 2.835 18.484-.504 19.828-.436 1.145.058 8.735-15.82 3.969-18.41-3.734-2.03-21.17-7.038-24.736-9.246-2.324-1.44-4.199-5.05-4.678-10.901-.454-5.533-2.596-16.968-6.133-19.49-3.166-2.256-22.02 3.976-24.893 5.06-6 2.267-11.108-4.68-11.905-5.569-5.63-5.16-11.662-17.384-17.727-14.392z" id="path1231" fill="url(#linearGradient1259)" fill-rule="evenodd" stroke="none" stroke-width=".314" stroke-linecap="butt" stroke-linejoin="miter" stroke-opacity="1"/><path d="M52.167 85.979c4.457 11.854 8.607 9.94 14.031 7.902 5.424-2.04 10.068-3.432 5.612-15.287-4.457-11.854-28.036-33.118-33.46-31.079-5.424 2.04 9.36 26.61 13.817 38.464z" id="path1233" fill="#85117c" stroke="none" stroke-width=".475" stroke-miterlimit="4" stroke-dasharray="none" stroke-opacity="1"/><path id="path1235" d="M50.883 84.568c4.456 11.855 8.606 9.941 14.03 7.902 5.424-2.04 10.069-3.432 5.612-15.286-4.457-11.855-28.035-33.119-33.46-31.08-5.424 2.04 9.361 26.61 13.818 38.464z" fill="#eb61e0" stroke="none" stroke-width=".475" stroke-miterlimit="4" stroke-dasharray="none" stroke-opacity="1"/><path id="path1237" d="M139.477 73.48c.774 12.454-3.894 12.417-9.804 12.785-5.909.367-10.821.998-11.595-11.456-.774-12.455 14.197-39.504 20.107-39.87 5.909-.368.518 26.085 1.292 38.54z" fill="#660d5f" stroke="none" stroke-width=".475" stroke-miterlimit="4" stroke-dasharray="none" stroke-opacity="1"/><path d="M138.716 71.989c.773 12.455-3.895 12.418-9.804 12.785-5.91.368-10.822 1-11.595-11.456-.774-12.454 14.197-39.503 20.106-39.87 5.91-.367.519 26.086 1.293 38.54z" id="path1239" fill="#eb61e0" stroke="none" stroke-width=".475" stroke-miterlimit="4" stroke-dasharray="none" stroke-opacity="1"/><path d="M93.31 108.058a16.176 15.161 77.346 01-16.586 14.032 16.176 15.161 77.346 01-13.699-17.983 16.176 15.161 77.346 0116.587-14.032 16.176 15.161 77.346 0113.699 17.983" id="path1241" fill="#fff" stroke="none" stroke-width=".475" stroke-miterlimit="4" stroke-dasharray="none" stroke-opacity="1"/><ellipse id="ellipse1243" cx="63.852" cy="120.741" rx="8.797" ry="8.675" transform="rotate(-8.634)" fill="#171717" stroke="none" stroke-width=".475" stroke-miterlimit="4" stroke-dasharray="none" stroke-opacity="1"/><ellipse transform="matrix(.87026 -.4926 .43293 .90143 0 0)" id="ellipse1245" cx="68.073" cy="149.044" rx="15.52" ry="14.663" fill="#fff" stroke="none" stroke-width=".475" stroke-miterlimit="4" stroke-dasharray="none" stroke-opacity="1"/><ellipse ry="8.959" rx="9.085" cy="120.514" cx="103.367" id="ellipse1247" transform="rotate(-8.634)" fill="#000" stroke="none" stroke-width=".475" stroke-miterlimit="4" stroke-dasharray="none" stroke-opacity="1"/><g id="g1362" transform="matrix(.78282 0 0 .78282 23.079 36.15)" stroke-width=".705"><path id="path1249" d="M125.296 162.33c-.62 6.366-6.589 15.309-16.757 16.803-10.167 1.494-18.408-5.013-20.909-11.46-2.54-6.55 6.789-12.243 16.956-13.738 10.168-1.494 21.389 1.444 20.71 8.395z" fill="#600c59"/><path d="M120.236 162.028c0 5.22-7.313 13.76-14.474 13.76-7.16 0-14.735-5.564-14.735-10.784 0-5.22 7.575-8.119 14.735-8.119 7.16 0 14.474-.076 14.474 5.143z" id="path1406" fill="url(#linearGradient1516)"/></g><path d="M83.557 151.598c-.33 3.615.15 10.01 2.592 12.764 1.12 1.261 3.077.555 5.214.269 5.521-.958 11.065.675 15.624 3.37 4.995-4.68 7.629-6.751 13.92-7.856 2.126-.361 4.204-.268 4.899-1.805 1.515-3.354.075-9.604-1.314-12.958-4.443-9.59-16.634-14.13-21.373-15.668-7.946 3.814-18.3 12.18-19.562 21.884z" id="path1251" fill="url(#linearGradient1261)" stroke-width=".552"/><path id="path1313" d="M110.635 137.742c1.316 6.229-2.767 6.625-7.915 7.335-5.147.71-3.85.06-5.166-6.169-1.316-6.228 1.955-23.439 1.955-23.439s9.81 16.045 11.126 22.273z" fill="url(#linearGradient1345)" stroke="none" stroke-width=".475" stroke-miterlimit="4" stroke-dasharray="none" stroke-opacity="1"/><path d="M126.3 152.397c.263 2.211.197 4.376-.502 5.924-.694 1.537-2.773 1.443-4.899 1.804-6.29 1.105-8.925 3.176-13.92 7.856-4.559-2.694-10.103-4.327-15.623-3.37-2.138.287-4.095.993-5.214-.269-1.126-1.27-1.832-3.315-2.236-5.504.327 2.76 1.08 5.533 2.48 7.11 1.119 1.262 3.076.556 5.214.27 5.52-.958 11.064.675 15.624 3.369 4.994-4.68 7.628-6.75 13.919-7.855 2.126-.361 4.205-.268 4.9-1.805.867-1.922.764-4.795.257-7.53z" id="path1253" fill="#3a0736" stroke-width=".552"/><ellipse id="path1306" cx="84.223" cy="112.454" rx="2.057" ry="2.247" fill="#fff" stroke-width=".552"/><ellipse ry="2.247" rx="2.057" cy="107.95" cx="116.991" id="ellipse1308" fill="#fff" stroke-width=".552"/></g></g></svg>