<svg viewBox="0 0 629.88 1056.4" xmlns="http://www.w3.org/2000/svg"><path d="M.327 1051.017c45.631-80.546 68.459-119.29 140.91-244.81l-8.956-9.103v-27.538h28.544c36.189-70.47 54.075-141.43 66.926-197.01-2.668-1.308-4.766-1.703-8.616-2.036v-23.523h15.124l4.65-18.774c21.6-87.216 28.338-151.68 41.296-395.09 2.886-54.224 2.931-51.063-.862-61.004l-3.123-8.185 2.175-33.094 10.359-.543c3.62-10.293 5.129-18.737 8.325-29.265 3.685-.661 6.552-.772 10.511-1.086l4.186 30.44h18.64V68.79l-9.21 9.328 1.469 26.126c4.152 73.814 10.15 154.08 15.476 207.07 12.176 73.57 16.09 152.53 26.789 226.64h27.903v34.38c-2.84.278-14.402-1.104-14.476 1.649 13.06 67.649 41.246 131.11 69.02 193.77h26.882v47.84c52.74 78.99 103.73 155.06 155.61 234.94-61.101.613-107.67.403-173.5.403-4.887-26.496-13.367-55.488-25.203-77.088-17.01-30.386-37.937-47.922-69.415-58.167-20.106-6.544-40.398-9.5-65.191-9.5-30.495 0-57.994 5.738-76.381 15.94-31.363 15.095-43.85 56.647-53.401 85-5.003 16.265-9.864 32.556-13.127 49.244-53.502-2.123-98.74-2.566-153.33-5.35zm99.135-13.929c-.51-1.532-46.276-36.792-46.908-36.139-.49.508-16.693 37.253-19.466 44.147 21.696-2.89 42.686-4.56 66.374-8.008zm45.256-37.338c-.425-.424-65.807 8.356-66.363 8.912-.563.564 48.059 36.61 48.64 36.06 5.456-15.682 11.885-28.506 17.724-44.972zm410.08-5.2c-15.79 11.935-31.103 23.224-47.377 36.454 25.014 3.552 41.014 6.022 67.054 8.955-7.287-15.658-13.854-31.97-19.678-45.409zm-28.207 7.133c-4.726-.808-62.491-8.644-63.718-8.644 5.025 16.631 8.759 26.215 16.05 43.541 5.827-3.66 43.341-31.274 47.669-34.897zm-400.65-11.603c-14.966-11.593-32.431-24.744-47.104-37.04-8.62 19.144-12.066 27.396-19.749 45.365 23.398-3.762 47.544-5.49 66.853-8.325zm402.27-43.815c-.387-.39-47.525 36.135-47.58 36.866 23.416 3.989 42.089 5.261 67.074 8.893-6.534-16.123-11.323-29.086-19.494-45.76zm-364.54-8.966c-25.807 3.26-44.722 5.993-67.581 9.147 16.696 11.611 31.896 25.592 48.967 36.63 6.655-15.992 12.98-28.276 18.614-45.777zm345.88 2.592c-4.522-.869-65.637-9.082-65.867-8.853 4.958 9.74 15.168 39.664 18.744 45.564 15.335-11.295 33.966-24.386 47.124-36.712zm-352.16-13.595c-11.953-16.16-22.977-22.591-43.573-40.645-9.074 20.058-17.869 37.773-25.708 55.59 24.506-6.556 49.686-9.407 69.281-14.945zm335.88-46.342c-15.476 13.295-30.912 25.927-44.225 39.707 2.246.771 66.345 14.438 68.046 14.509-3.044-8.008-21.039-50.31-23.821-54.216zm-249.93 22.16c-14.429-13.6-23.958-26.547-40.254-39.887-2.612 20.817-3.538 37.858-5.81 55.556 15.302-5.367 30.81-10.17 46.064-15.67zm155.84-31.312c-9.315 13.118-18.313 22.802-26.614 37.944.288.403 31.296 9.037 32.793 9.13-.75-10.887-5.057-33.574-6.179-47.074zm-218.31-1.3c-.264-.174-53.789 8.415-55.022 8.826 13.191 11.93 25.587 23.924 40.581 37.084 4.633-16.283 10.162-28.556 14.441-45.91zm301.19 2.564c-.382-.383-55.246-9.128-55.555-8.857 4.41 16.412 9.414 28.857 14.286 46.225 14.122-13.385 26.183-22.677 41.269-37.368zm-124.52 31.877c-4.732-13.212-15.029-40.244-15.366-40.25-.725 0-20.797 36.478-20.325 36.95 9.46.879 28.096 2.517 35.691 3.3zm-97.196-41.882c-.878-.23-34.942 6.772-35.403 7.274-.336.37 25.071 30.523 25.706 30.513 2.144-8.976 11.108-30.389 9.696-37.788zm37.956 33.117c.438-.439-21.265-31.511-22.001-31.5-.491 0-12.478 30.867-13.551 34.885 13.305-.981 21.103-2.24 35.552-3.385zm28.73-32.661c-7.333-.799-20.749.225-34.267.13 4.28 9.145 10.36 20.41 18.641 34.478 5.703-11.892 10.402-21.544 15.626-34.608zm61.286.849c-12.301-1.42-26.492-2.777-37.1-3.347 5.84 14.223 9.49 23.818 15.928 35.994 7.365-11.382 14.335-20.74 21.172-32.646zm-197.14-16.481c11.336-8.489 10.958-23.601-.38-29.281-12.266-5.938-25.62 3.558-23.788 16.917 1.532 11.178 14.064 17.589 24.168 12.364zm56.52-9.037c5.318-13.924-9.24-26.828-22.84-20.244-13.727 6.645-11.209 27.13 3.78 30.748 8.08 1.904 16.37-3.864 19.06-10.504zm35.794 8.994c8.5-4.298 11.191-15.794 5.663-24.185-7.96-12.08-27.528-7.278-29.835 7.322.615 13.255 7.671 22.33 24.172 16.862zm44.892-29.206c-10.434-5.05-22.028.955-23.828 12.344-1.17 7.407 3.683 15.258 11.059 17.887 19.445 2.204 29.23-21.854 12.768-30.231zm52.326 12.344c-.855-5.409-4.223-10.08-8.9-12.344-13.661-6.614-28.238 6.248-22.905 20.212 10.518 16.564 33.952 9.353 31.805-7.868zm38.491 16.876c8.403-4.3 11.243-15.782 5.9-23.856-8.17-12.346-27.736-7.804-30.072 6.98-2.047 12.957 12.28 22.96 24.172 16.876zm51.982-16.876c-2.327-14.722-21.858-19.392-29.952-7.161-6.103 9.223-2.093 21.349 8.284 25.048 12.095 3.959 22.847-8.423 21.668-17.887zm-111.12-47.74l-22.434-110.83c-.59-15.906-.57-33.648-1.38-47.95h-63.285l-.988 59.713c-4.283 28.972-12.437 72.134-16.814 99.876 36.993.394 70.133-.486 104.9-.808zm-116.95-30.6c-15.658 2.822-27.444 5.706-44.117 9.454 10.647 6.29 21.452 12.32 35.441 20.85 3.269-10.676 5.697-18.651 8.675-30.303zm162.84-5.933c0-.763-43.042-10.894-43.492-10.238 3.523 14.655 6.939 26.416 10.895 42.01 10.014-9 21.264-18.711 32.598-31.772zm28.284 31.84l-13.583-29.602c-9.716 11.255-17.62 21.943-26.44 31.704 13.648-.829 28.38-1.542 40.023-2.102zm-203.3-31.86c-10.726-7.45-21.553-14.484-32.769-21.401-3.635 9.623-6.494 16.203-11.608 30.197 15.514-2.88 28.694-5.517 44.377-8.796zm21.41-37.253c-.17-.14-41.512 9.216-43.474 9.837-.714.223 32.714 21.448 33.784 21.448 3.466-10.89 6.323-19.437 9.69-31.286zm165.85 24.274c.062-1.75-8.617-30.08-9.15-29.87-1.403.55-27.948 25.44-27.554 25.835 12.262 1.06 24.439 3.156 36.704 4.034zm-22.765-32.448c-12.881-3.272-26.03-5.55-38.861-9.015 1.411.707 8.682 39.575 10.687 38.354 10.123-10.261 17.644-18.278 28.174-29.34zm-146.43.405c-10.86-7.907-21.825-15.955-32.5-23.372-3.07 9.866-9.864 28.273-13.262 37.496 17.424-5.389 30.434-9.144 45.762-14.124zm10.692-38.305c-.476-.474-35.582 8.208-35.582 8.801 0 .903 28.923 22.505 29.14 21.764 2.759-11.27 4.13-19.562 6.442-30.566zm130.92-5.89c-8.507 8.425-17.774 18.25-25.965 26.956.924.307 33.62 6.312 35.085 6.442-3.33-12.509-5.255-20.625-9.12-33.398zm-11.431-5.155c-12.154-2.884-24.122-6.646-36.326-9.307 3.514 12.747 6.21 21.585 10.662 36.19 9.126-9.393 15.961-16.664 25.664-26.882zm-121.8-1.106c-9.626-7.807-17.006-13.173-27.75-20.773-4.213 10.657-8.503 21.411-12.308 32.795 14.314-4.503 25.131-7.166 40.058-12.022zm116.91-42.38c-5.457 6.057-21.535 21.832-25.627 26.733 1.228.25 34.214 6.287 35.246 6.451-2.966-11.706-5.327-21.025-9.62-33.185zm-110.21 4.641c-12.453 3.126-21.762 6.172-34.958 10.178 10.934 3.926 21.516 8.616 32.332 13.443.572-8.164 1.83-14.51 2.626-23.62zm19.573-87.803c-7.77-6.865-15.405-12.568-25.096-19.12-.322.432-3.258 27.055-3.247 29.454 10.819-3.578 15.636-5.293 28.343-10.334zm61.027-21.752c-.203-.925-23.37 13.206-26.42 16.115 10.846 5.767 16.485 8.285 28.971 14.971-.956-10.828-1.056-19.6-2.551-31.086zm-49.713-16.939c-.711-.605-28.072 12.727-27.775 13.537.287.783 24.548 18.53 24.898 18.212 1.01-12.205 1.946-19.469 2.877-31.75zm41.765 9.45c.013-.488-27.631-14.464-28.603-14.464-.25 10.835.595 21.111 1.66 31.74 8.936-6.845 19.172-12.365 26.942-17.277zm-47.569-16.109c-10.521-7.943-16.458-12.994-24.632-17.85-1.238 10.683-2.154 18.92-3.408 30.06 9.366-4.024 18.654-8.233 28.04-12.21zm50.748-23.746c-9.249 6.264-18.45 12.258-26.676 18.033.014.578 26.909 13.49 28.375 13.621-.785-12.636-.453-20.746-1.7-31.653zm-45.64 14.308c.177-.81 3.15-31.44 3.052-31.44-11.23 5.147-19.162 8.855-29.64 13.594 7.363 5.094 16.9 11.643 26.588 17.846zm42.87-21.73c-9.04-4.768-20.077-10.229-29.085-13.894-.51.508.688 31.326 1.219 31.326 9.267-5.355 19.339-11.967 27.866-17.432zm-44.178-20.386c-9.67-8.172-12.925-11.729-23.994-20.072-1.221 10.36-2.264 19.211-3.699 31.187 9.799-3.642 19.651-7.12 27.693-11.115zm47.406 6.379c.01-2.658-2.065-29.611-2.302-29.909-9.977 5.966-17.27 11.019-27.702 17.933 7.14 2.917 29.532 13.988 30.005 11.976zm-44.518-48.638c-8.2 4.04-14.18 7.642-22.726 12.494 5.925 6.462 11.584 10.442 19.984 18.311.654-10.758 1.784-18.633 2.742-30.805zm38.172 8.152l-23.522-13.94c1.065 11.418 1.45 21.116 1.996 32.46 7.632-6.584 14.416-12.347 21.526-18.521zm-39.708-20.81c-7.266-6.26-14.791-13.177-20.646-18.507a5233.432 5233.432 0 01-2.342 31.96c7.932-4.555 16.419-9.573 22.988-13.452zm40.579-21.603c-.62-.62-20.316 15.506-20.316 16.635 0 .556 20.761 14.41 21.689 14.47-.65-11.367-.817-19.59-1.373-31.105zm-36.148-17.34c-8.149 4.334-20.915 11.694-21.264 12.259-.426.689 17.438 18.92 18.592 18.973 1.155-12.216 2.074-19.066 2.672-31.232zm33.186 8.425c-7.623-5.458-13.869-8.97-22.431-14.16a3668.218 3668.218 0 002.072 32.445c8.106-7.246 13.705-11.636 20.359-18.286zm-37.387-17.239c-6.325-6.66-11.677-11.22-18.87-17.734-1.386 9.948-1.297 19.095-1.707 31.382 4.6-3.754 13.328-8.155 20.577-13.648zm36.699-22.81c-6.695 6.8-11.163 12.073-17.089 18.65-.026.515 16.196 13.467 16.864 13.467.4-11.26.251-20.546.225-32.118zm-26.909-14.862c-7.342 4.497-15.268 8.126-22.45 12.873 6.305 7.188 11.616 12.665 19.253 19.335 1.305-12.12 1.853-21.364 3.196-32.208zm25.847 5.008c-3.655-2.055-14.365-8.831-19.782-10.685-.014 8.13 1.585 20.962 1.78 28.938 4.614-5.235 11.038-11.605 18.002-18.253zm-34.26-11.963c-4.804-6.78-9.068-11.507-14.818-18.366-.956 10.724-1.875 22.663-2.332 31.663 5.703-4.449 11.46-8.83 17.15-13.296zm32.006-25.772l-.725-2.795c-2.53 3.95-14.074 12.903-13.946 16.764 4.435 6.378 8.567 8.566 14.893 13.892-.676-9.083 1.794-18.914-.222-27.861zm-27.888-13.3c-6.35 3.988-10.892 7.489-17.435 12.228 5.157 5.617 9.446 13.13 15.201 17.787.94-10.488 2.486-18.881 2.234-30.014zm25.299.825c-2.21-1.916-14.505-11.611-15.361-12.114-.811 7.087-.157 21.487.824 30.108 3.468-4.865 10.179-12.571 14.537-17.994zm-28.402-9.16c-4.877-6.811-9.17-11.564-14.928-18.388-.092 10.672.656 17.558-.45 30.75 5.173-4.382 10.871-7.31 15.378-12.362zm26.237-29.349l-11.561 17.906c3.819 4.36 7.295 9.114 11.315 13.263.374-10.97.246-19.344.246-31.17zm-19.32-8.33c-.34-.368-16.831 11.994-16.849 12.631 4.841 7.029 9.149 11.932 14.907 18.97.324-10.53 1.915-21.07 1.942-31.6zm22.046-1.014L308.7 180.636c1.082 9.25 1.237 17.219 2.687 30.098 5.105-5.71 9.39-10.572 14.515-16.371zm-38.565-22.493c-.574 9.926-.852 17.497-1.313 28.175l12.523-12.418c-3.95-5.418-6.995-10.432-11.21-15.757zm31.558-15.237c-4.507 4.94-6.28 7.822-9.886 13.708l10.094 12.659c.248-9.722-.287-17.44-.208-26.367zm-18.338-5.389c-3.817 4.138-8.563 7.8-11.762 12.37 3.307 6.022 6.367 10.295 10.404 16.37a524.9 524.9 0 001.357-28.74zm17.317-5.124c-3.544-4.002-6.666-8.698-10.429-12.37-.26.647.478 28.922.748 28.631 3.516-5.695 6.063-10.113 9.681-16.261zm-20.031-1.88c-1.803-2.879-9.821-16.318-10.983-13.7-.954 9.21-.727 16.335-.778 26.027 3.826-4.094 8.74-8.158 11.761-12.329zm4.248-35.249l-12.234 12.141c3.873 5.084 7.065 11.911 11.31 16.194.471-9.92.644-18.183.925-28.335zm13.394 1.775l-6.49 15.256 6.49 11.903c.478-9.933.367-17.64 0-27.158zm-17.657-4.814c-3.256-5.92-6.469-9.997-10.619-15.814-.264 9.795-1.132 20.408-1.127 28.433 3.333-4.368 7.015-7.99 11.747-12.62zm19.83-5.594c-3.527-3.664-6.487-8.884-10.47-11.739-.163 9.85.392 17.35.883 27.882 3.376-5.448 6.913-11.507 9.586-16.143zm-15.67-28.96c-4.533 3.707-7.757 6.81-12.415 11.072l11.437 16.884c.04-9.307 1.212-18.655.978-27.956z"/></svg>