<svg xmlns="http://www.w3.org/2000/svg" width="80" height="16" fill="none" version="1.1" id="svg2693"><g transform="translate(-6.385 2)" id="g3203" fill="#374151"><path id="path2251" d="M9.385 4a1 1 0 011-1h1V2a1 1 0 012 0v1h1a1 1 0 010 2h-1v1a1 1 0 01-2 0V5h-1a1 1 0 01-1-1z"/><path id="path2253" d="M6.385 4a6 6 0 1110.89 3.477l4.817 4.816a.999.999 0 11-1.414 1.414l-4.816-4.816A6 6 0 016.385 4zm6-4a4 4 0 100 8 4 4 0 000-8z" clip-rule="evenodd" fill-rule="evenodd"/></g><g transform="translate(-6.385 2)" id="g3207" fill="#374151" clip-rule="evenodd" fill-rule="evenodd"><path id="path2335" d="M44.385 0a4 4 0 100 8 4 4 0 000-8zm-6 4a6 6 0 1110.89 3.477l4.817 4.816a.999.999 0 11-1.414 1.414l-4.816-4.816A6 6 0 0138.385 4z"/><path id="path2337" d="M41.385 4a1 1 0 011-1h4a1 1 0 010 2h-4a1 1 0 01-1-1z"/></g><path fill-rule="evenodd" clip-rule="evenodd" d="M70 2a4 4 0 100 8 4 4 0 000-8zm-6 4a6 6 0 1110.891 3.477l4.816 4.816a.999.999 0 11-1.414 1.414l-4.816-4.816A6 6 0 0164 6z" fill="#374151" id="path2413"/></svg>