<svg version="1.1" width="32px" height="32px" viewBox="0 0 48 16" xmlns="http://www.w3.org/2000/svg">
	<path d="m3 5.988a1 1 0 0 1 1-1h1v-1a1 1 0 0 1 2 0v1h1a1 1 0 0 1 0 2h-1v1a1 1 0 0 1-2 0v-1h-1a1 1 0 0 1-1-1z"/>
	<path d="m0 5.988c1.5865e-4 -4.0633 3.9542-6.9513 7.8249-5.7155 3.8707 1.2359 5.4196 5.8809 3.0651 9.1925l4.817 4.816c0.97586 0.94252-0.47148 2.3899-1.414 1.414l-4.816-4.816c-3.9729 2.825-9.4779-0.016087-9.477-4.891zm6-4c-5.3333-1e-7 -5.3333 8 0 8 5.3333 0 5.3333-8 0-8z"/>
	<path d="m37.988 1.9984c-5.3228-1e-7 -5.3228 7.9829 0 7.9829s5.3228-7.9829 0-7.9829zm-5.9882 3.9915c0.0011-4.054 3.9469-6.9349 7.8094-5.7019 3.8625 1.2329 5.4087 5.8669 3.0602 9.1715l4.8065 4.8057c0.97395 0.94051-0.47055 2.3848-1.4112 1.411l-4.8065-4.8057c-3.9644 2.8185-9.4577-0.014969-9.4584-4.8786z"/>
	<path d="m18.988 5.9799c0-0.55111 0.44684-0.99787 0.99803-0.99787h3.9921c1.3307 0 1.3307 1.9957 0 1.9957h-3.9921c-0.5512 0-0.99803-0.44676-0.99803-0.99787zm3.0001-3.9815c-5.3228 0-5.3228 7.9829 0 7.9829s5.3228-7.9829 0-7.9829zm-5.9882 3.9915c0.0011-4.054 3.9469-6.9349 7.8094-5.7019 3.8625 1.2329 5.4087 5.8669 3.0602 9.1715l4.8065 4.8057c0.97395 0.94051-0.47055 2.3848-1.4112 1.411l-4.8065-4.8057c-3.9644 2.8185-9.4577-0.014968-9.4584-4.8786z"/>
</svg>