<?xml version="1.0" encoding="UTF-8"?>
<svg version="1.1" viewBox="0 0 80 16" xmlns="http://www.w3.org/2000/svg">
 <g fill="#374151">
  <path d="M3 5.988a1 1 0 0 1 1-1h1v-1a1 1 0 0 1 2 0v1h1a1 1 0 0 1 0 2h-1v1a1 1 0 0 1-2 0v-1h-1a1 1 0 0 1-1-1z"/>
  <path d="M0 5.988a6 6 0 1 1 10.89 3.477l4.817 4.816a1 1 0 1 1-1.414 1.414l-4.816-4.816a6 6 0 0 1-9.477-4.891zm6-4a4 4 0 1 0 0 8 4 4 0 0 0 0-8zm31.994 0a4 4 0 1 0 0 8 4 4 0 0 0 0-8zm-6 4a6 6 0 1 1 10.89 3.477l4.816 4.815a1 1 0 1 1-1.414 1.414l-4.816-4.816a6 6 0 0 1-9.477-4.891z"/>
  <path d="M34.994 5.988a1 1 0 0 1 1-1h4a1 1 0 0 1 0 2h-4a1 1 0 0 1-1-1zm35.006-3.99a4 4 0 1 0 0 8 4 4 0 0 0 0-8zm-6 4a6 6 0 1 1 10.891 3.477l4.816 4.816a1 1 0 1 1-1.414 1.414l-4.816-4.816a6 6 0 0 1-9.477-4.889z"/>
 </g>
</svg>
