<?xml version="1.0" encoding="UTF-8" standalone="no"?>
<svg
   xmlns:dc="http://purl.org/dc/elements/1.1/"
   xmlns:cc="http://creativecommons.org/ns#"
   xmlns:rdf="http://www.w3.org/1999/02/22-rdf-syntax-ns#"
   xmlns:svg="http://www.w3.org/2000/svg"
   xmlns="http://www.w3.org/2000/svg"
   xmlns:xlink="http://www.w3.org/1999/xlink"
   xmlns:sodipodi="http://sodipodi.sourceforge.net/DTD/sodipodi-0.dtd"
   xmlns:inkscape="http://www.inkscape.org/namespaces/inkscape"
   inkscape:export-ydpi="35.66"
   inkscape:export-xdpi="35.66"
   inkscape:export-filename="/home/enrico/projects/articles/viewbox-article/img/landscape_viewbox_example.png"
   inkscape:version="1.0 (1.0+r73+1)"
   sodipodi:docname="landscape_viewbox_example.svg"
   viewBox="0 0 1920.6688 457.74464"
   height="431.5878"
   width="1810.9163"
   id="landscape"
   version="1.1">
  <metadata
     id="metadata19">
    <rdf:RDF>
      <cc:Work
         rdf:about="">
        <dc:format>image/svg+xml</dc:format>
        <dc:type
           rdf:resource="http://purl.org/dc/dcmitype/StillImage" />
        <dc:title />
      </cc:Work>
    </rdf:RDF>
  </metadata>
  <sodipodi:namedview
     inkscape:current-layer="landscape"
     inkscape:window-maximized="1"
     inkscape:window-y="27"
     inkscape:window-x="0"
     inkscape:cy="341.59375"
     inkscape:cx="938.52424"
     inkscape:zoom="0.62060887"
     inkscape:snap-global="true"
     fit-margin-bottom="0"
     fit-margin-right="0"
     fit-margin-left="0"
     fit-margin-top="0"
     showgrid="false"
     id="namedview17"
     inkscape:window-height="1016"
     inkscape:window-width="1920"
     inkscape:pageshadow="2"
     inkscape:pageopacity="0"
     guidetolerance="10"
     gridtolerance="10"
     objecttolerance="10"
     borderopacity="1"
     bordercolor="#666666"
     pagecolor="#ffffff"
     inkscape:document-rotation="0" />
  <defs
     id="defs8">
    <marker
       inkscape:isstock="true"
       style="overflow:visible;"
       id="marker1199"
       refX="0.0"
       refY="0.0"
       orient="auto"
       inkscape:stockid="Arrow2Lend">
      <path
         transform="scale(1.1) rotate(180) translate(1,0)"
         d="M 8.7185878,4.0337352 L -2.2072895,0.016013256 L 8.7185884,-4.0017078 C 6.9730900,-1.6296469 6.9831476,1.6157441 8.7185878,4.0337352 z "
         style="fill-rule:evenodd;stroke-width:0.625;stroke-linejoin:round;stroke:#000000;stroke-opacity:1;fill:#000000;fill-opacity:1"
         id="path957" />
    </marker>
    <marker
       inkscape:stockid="Arrow1Mend"
       orient="auto"
       refY="0.0"
       refX="0.0"
       id="Arrow1Mend"
       style="overflow:visible;"
       inkscape:isstock="true">
      <path
         id="path1812"
         d="M 0.0,0.0 L 5.0,-5.0 L -12.5,0.0 L 5.0,5.0 L 0.0,0.0 z "
         style="fill-rule:evenodd;stroke:#000000;stroke-width:1pt;stroke-opacity:1;fill:#000000;fill-opacity:1"
         transform="scale(0.4) rotate(180) translate(10,0)" />
    </marker>
    <marker
       inkscape:isstock="true"
       style="overflow:visible"
       id="marker1293"
       refX="0"
       refY="0"
       orient="auto"
       inkscape:stockid="Arrow2Lend">
      <path
         transform="matrix(-1.1,0,0,-1.1,-1.1,0)"
         d="M 8.7185878,4.0337352 -2.2072895,0.01601326 8.7185884,-4.0017078 c -1.7454984,2.3720609 -1.7354408,5.6174519 -6e-7,8.035443 z"
         style="fill:#000000;fill-opacity:1;fill-rule:evenodd;stroke:#000000;stroke-width:0.625;stroke-linejoin:round;stroke-opacity:1"
         id="path1291" />
    </marker>
    <marker
       inkscape:isstock="true"
       style="overflow:visible"
       id="marker1251"
       refX="0"
       refY="0"
       orient="auto"
       inkscape:stockid="Arrow2Lend">
      <path
         transform="matrix(-1.1,0,0,-1.1,-1.1,0)"
         d="M 8.7185878,4.0337352 -2.2072895,0.01601326 8.7185884,-4.0017078 c -1.7454984,2.3720609 -1.7354408,5.6174519 -6e-7,8.035443 z"
         style="fill:#000000;fill-opacity:1;fill-rule:evenodd;stroke:#000000;stroke-width:0.625;stroke-linejoin:round;stroke-opacity:1"
         id="path1249" />
    </marker>
    <marker
       inkscape:isstock="true"
       style="overflow:visible"
       id="marker1223"
       refX="0"
       refY="0"
       orient="auto"
       inkscape:stockid="Arrow2Lstart">
      <path
         transform="matrix(1.1,0,0,1.1,1.1,0)"
         d="M 8.7185878,4.0337352 -2.2072895,0.01601326 8.7185884,-4.0017078 c -1.7454984,2.3720609 -1.7354408,5.6174519 -6e-7,8.035443 z"
         style="fill:#000000;fill-opacity:1;fill-rule:evenodd;stroke:#000000;stroke-width:0.625;stroke-linejoin:round;stroke-opacity:1"
         id="path1221" />
    </marker>
    <marker
       inkscape:isstock="true"
       style="overflow:visible"
       id="Arrow2Lend"
       refX="0"
       refY="0"
       orient="auto"
       inkscape:stockid="Arrow2Lend">
      <path
         transform="matrix(-1.1,0,0,-1.1,-1.1,0)"
         d="M 8.7185878,4.0337352 -2.2072895,0.01601326 8.7185884,-4.0017078 c -1.7454984,2.3720609 -1.7354408,5.6174519 -6e-7,8.035443 z"
         style="fill:#000000;fill-opacity:1;fill-rule:evenodd;stroke:#000000;stroke-width:0.625;stroke-linejoin:round;stroke-opacity:1"
         id="path940" />
    </marker>
    <marker
       inkscape:isstock="true"
       style="overflow:visible"
       id="Arrow2Lstart"
       refX="0"
       refY="0"
       orient="auto"
       inkscape:stockid="Arrow2Lstart">
      <path
         transform="matrix(1.1,0,0,1.1,1.1,0)"
         d="M 8.7185878,4.0337352 -2.2072895,0.01601326 8.7185884,-4.0017078 c -1.7454984,2.3720609 -1.7354408,5.6174519 -6e-7,8.035443 z"
         style="fill:#000000;fill-opacity:1;fill-rule:evenodd;stroke:#000000;stroke-width:0.625;stroke-linejoin:round;stroke-opacity:1"
         id="path937" />
    </marker>
    <linearGradient
       id="linearGradient907">
      <stop
         id="stop2"
         offset="0"
         stop-color="#3b9f12" />
      <stop
         id="stop4"
         offset="1"
         stop-color="#32870f" />
    </linearGradient>
    <linearGradient
       y2="-2659.645"
       x2="-4102.6152"
       y1="-3162.8879"
       x1="-3698.3831"
       gradientTransform="matrix(0.28606002,0,0,0.27403002,2060.787,1153.9136)"
       gradientUnits="userSpaceOnUse"
       id="linearGradient1560"
       xlink:href="#linearGradient907" />
  </defs>
  <path
     style="opacity:0.206987;stroke-width:1"
     id="path10"
     d="M 0,0 H 1919.0698 V 457.74463 H 0 Z"
     fill="#8ce1f3" />
  <path
     id="rect879"
     style="opacity:0.502751;fill:#8ce1f3;fill-opacity:1;stroke-width:0"
     d="M 425.40682,87.101521 V 409.03069 H 1537.8687 V 87.101521 Z" />
  <path
     id="path12"
     style="opacity:0.206987;stroke-width:1"
     d="m 1155.4705,266.64846 c -56.238,0 -102.1664,38.44719 -103.3884,86.54919 H 844.5907 c -14.07403,-32.78001 -51.70614,-65.306 -94.08117,-65.306 -42.37598,0 -76.8425,32.52599 -89.57147,65.306 H 431.70004 c -15.23805,-32.78001 -55.98166,-65.306 -101.86167,-65.306 -29.88799,0 -56.14061,13.80327 -74.62361,32.48728 -10.614,-10.453 -24.72814,-16.2861 -39.40815,-16.2861 -27.87599,0 -51.66884,20.76782 -56.26183,49.10482 H 0.44350049 v 8.06226 H 159.54478 c 4.592,-28.33799 28.38584,-49.10068 56.26183,-49.10068 14.68001,0 28.79515,5.83203 39.40815,16.28404 18.483,-18.684 44.73562,-32.48728 74.62361,-32.48728 45.88001,0 86.62362,32.52292 101.86167,65.30392 h 229.23802 c 12.72992,-32.77999 47.19538,-65.30392 89.56935,-65.30392 42.37609,0 80.00926,32.52292 94.08329,65.30392 H 1052.08 c 1.223,-48.101 47.1503,-86.54918 103.3885,-86.54918 31.9889,0 62.1789,12.66698 81.7639,34.30398 14.8381,-5.971 31.3453,-9.09181 48.1064,-9.09181 48.13,0 89.8942,25.42801 100.7493,61.33701 h 74.261 c 10.855,-35.90999 52.6204,-61.33701 100.7493,-61.33701 27.083,0 53.0856,8.13825 72.4196,22.66424 a 133.897,133.897 0 0 1 22.2209,-1.84984 c 23.003,0 45.3498,5.87411 63.5037,16.69211 18.1551,-10.818 40.5018,-16.69111 63.5038,-16.69211 37.443,0 71.9608,15.49861 90.2448,40.52261 h 47.6776 v -8.06226 h -47.6776 c -18.285,-25.02401 -52.8018,-40.52468 -90.2448,-40.52468 -23.002,0 -45.3497,5.87411 -63.5038,16.69212 -18.1549,-10.81801 -40.4997,-16.69212 -63.5037,-16.69212 -7.472,0 -14.9239,0.61984 -22.2209,1.84985 -19.334,-14.52601 -45.3366,-22.66218 -72.4196,-22.66218 -48.1289,0 -89.8931,25.42701 -100.7472,61.33701 h -74.2631 c -10.854,-35.91 -52.6182,-61.33701 -100.7473,-61.33701 -16.76,0 -33.2703,3.11873 -48.1063,9.08973 -19.586,-21.637 -49.774,-34.30189 -81.764,-34.30191 z" />
  <path
     id="path14"
     style="opacity:0.206987;fill:url(#linearGradient1560);stroke-width:1"
     d="m 1155.4705,274.1452 c -56.239,0 -102.1684,38.44713 -103.3905,86.54712 H 844.5907 c -14.07403,-32.77999 -51.70412,-65.30392 -94.07915,-65.30392 -42.37599,0 -76.84452,32.52393 -89.57349,65.30392 H 431.70004 c -15.23805,-32.77999 -55.9806,-65.30392 -101.85966,-65.30392 -29.88799,0 -56.14155,13.80327 -74.62354,32.48728 -10.61401,-10.452 -24.73022,-16.28404 -39.41023,-16.28404 -27.875,0 -51.66983,20.76369 -56.26183,49.10068 H 3.0225127 V 457.744 H 1919.7532 v -97.05168 h -46.762 c -18.285,-25.02299 -52.8018,-40.5226 -90.2448,-40.5226 -23.002,0 -45.3497,5.8731 -63.5038,16.69211 -18.1549,-10.819 -40.4997,-16.69211 -63.5037,-16.69211 -7.472,0 -14.9239,0.62191 -22.2209,1.85191 -19.334,-14.52701 -45.3366,-22.66631 -72.4196,-22.66631 -48.1289,0 -89.8931,25.42801 -100.7472,61.337 h -74.2631 c -10.854,-35.90899 -52.6192,-61.337 -100.7473,-61.337 -16.76,0 -33.2714,3.12087 -48.1084,9.09386 -19.585,-21.63899 -49.7739,-34.30296 -81.7619,-34.30398 z" />
  <text
     id="text901"
     y="-216.6006"
     x="274.57812"
     style="font-style:normal;font-variant:normal;font-weight:normal;font-stretch:normal;font-size:45.2525px;line-height:38.5676px;font-family:'Open Sans';-inkscape-font-specification:'Open Sans';letter-spacing:0px;word-spacing:0px;fill:#333333;fill-opacity:1;stroke:none;stroke-width:1.06061px;stroke-linecap:butt;stroke-linejoin:miter;stroke-opacity:1"
     xml:space="preserve"><tspan
       style="font-size:45.2525px;fill:#333333;stroke-width:1.06061px"
       y="-216.6006"
       x="274.57812"
       id="tspan899"
       sodipodi:role="line">min-x, min-y</tspan></text>
  <text
     id="text909"
     y="-109.91539"
     x="953.53735"
     style="font-style:normal;font-variant:normal;font-weight:normal;font-stretch:normal;font-size:45.2525px;line-height:38.5676px;font-family:'Open Sans';-inkscape-font-specification:'Open Sans';letter-spacing:0px;word-spacing:0px;fill:#333333;fill-opacity:1;stroke:none;stroke-width:1.06061px;stroke-linecap:butt;stroke-linejoin:miter;stroke-opacity:1"
     xml:space="preserve"><tspan
       style="font-size:45.2525px;fill:#333333;stroke-width:1.06061px"
       y="-109.91539"
       x="953.53735"
       id="tspan907"
       sodipodi:role="line">width</tspan></text>
  <text
     id="text913"
     y="-599.63959"
     x="730.61798"
     style="font-style:normal;font-variant:normal;font-weight:normal;font-stretch:normal;font-size:45.2525px;line-height:38.5676px;font-family:'Open Sans';-inkscape-font-specification:'Open Sans';letter-spacing:0px;word-spacing:0px;fill:#333333;fill-opacity:1;stroke:none;stroke-width:1.06061px;stroke-linecap:butt;stroke-linejoin:miter;stroke-opacity:1"
     xml:space="preserve"><tspan
       style="font-size:45.2525px;fill:#333333;stroke-width:1.06061px"
       y="-599.63959"
       x="730.61798"
       id="tspan911"
       sodipodi:role="line">height</tspan></text>
  <path
     id="path915"
     d="M 460.04695,-179.33334 H 1546.8644"
     style="fill:none;fill-rule:evenodd;stroke:#000000;stroke-width:1.60344;stroke-linecap:butt;stroke-linejoin:miter;stroke-miterlimit:4;stroke-dasharray:none;stroke-opacity:1;marker-start:url(#Arrow2Lstart);marker-end:url(#Arrow2Lend)" />
  <path
     d="m 1155.4701,266.64751 c -56.238,0 -102.1664,38.4471 -103.3884,86.5491 H 844.59034 c -14.074,-32.78 -51.7061,-65.306 -94.0812,-65.306 -42.3759,0 -76.8425,32.526 -89.5714,65.306 h -229.2381 c -1.7626,-3.7917 -3.8796,-7.5775 -6.2932,-11.3124 v 8.0664 c 2.4129,3.7341 4.531,7.5195 6.2932,11.3104 h 229.2381 c 12.7299,-32.78 47.1953,-65.306 89.5693,-65.306 42.3761,0 80.0093,32.525 94.0833,65.306 h 207.48936 c 1.2229,-48.101 47.1503,-86.5492 103.3884,-86.5492 31.9889,0 62.1789,12.667 81.7639,34.304 14.8381,-5.971 31.3453,-9.0918 48.1064,-9.0918 48.13,0 89.8942,25.428 100.7493,61.337 h 74.261 c 9.0607,-29.9738 39.6628,-52.6309 77.5196,-59.307 v -8.0622 c -37.8561,6.6763 -68.4579,29.3314 -77.5175,59.3048 h -74.2631 c -10.854,-35.91 -52.6182,-61.337 -100.7473,-61.337 -16.76,0 -33.2703,3.1208 -48.1063,9.0918 -19.586,-21.637 -49.774,-34.3039 -81.764,-34.3039 z"
     style="fill:#25650b;fill-opacity:1;stroke-width:1.00015;stroke-miterlimit:4;stroke-dasharray:none"
     id="path851" />
  <path
     id="path853"
     style="fill:#3b9f12;fill-opacity:1;stroke-width:1.00015;stroke-miterlimit:4;stroke-dasharray:none"
     d="m 1155.4705,274.7128 c -56.239,0 -102.1684,38.44918 -103.3905,86.54919 H 844.5907 c -14.07403,-32.78001 -51.70401,-65.30393 -94.07915,-65.30393 -42.37588,0 -76.84463,32.52392 -89.57349,65.30393 H 431.70004 c -1.76252,-3.79161 -3.8797,-7.57765 -6.29322,-11.31245 v 58.65649 H 1537.8687 V 301.95505 c -37.8562,6.67649 -68.4579,29.33434 -77.5175,59.30694 h -74.2631 c -10.854,-35.90901 -52.6192,-61.33702 -100.7473,-61.33702 -16.76,0 -33.2714,3.1188 -48.1084,9.0918 -19.585,-21.63899 -49.7739,-34.30298 -81.7619,-34.30397 z" />
  <rect
     y="89.104866"
     x="425.40652"
     height="319.34714"
     width="1112.4626"
     id="rect894"
     style="fill:none;fill-opacity:1;stroke:#733c1d;stroke-width:26.51515192;stroke-miterlimit:4;stroke-dasharray:none;stroke-dashoffset:0;stroke-opacity:1" />
  <path
     sodipodi:nodetypes="czc"
     id="path1289"
     d="m 279.43244,190.1398 c 0,0 -5.76846,10.6064 55.14601,20.0274 60.91447,9.421 90.3777,9.14593 90.3777,9.14593"
     style="fill:none;fill-rule:evenodd;stroke:#000000;stroke-width:2.12121215;stroke-linecap:butt;stroke-linejoin:miter;stroke-miterlimit:4;stroke-dasharray:none;stroke-opacity:1;marker-end:url(#marker1199)" />
  <path
     id="path917"
     d="M 712.65866,-483.97384 V -767.80482"
     style="fill:none;fill-rule:evenodd;stroke:#000000;stroke-width:1.60344;stroke-linecap:butt;stroke-linejoin:miter;stroke-miterlimit:4;stroke-dasharray:none;stroke-opacity:1;marker-start:url(#marker1223);marker-end:url(#marker1251)" />
  <circle
     r="6.9749684"
     cy="-310.08154"
     cx="358.72223"
     id="path1337"
     style="fill:#ff6306;fill-opacity:1;stroke:none;stroke-width:1.06061;stroke-miterlimit:4;stroke-dasharray:none;stroke-dashoffset:0;stroke-opacity:1" />
  <rect
     style="opacity:0.998285;fill:#4b2009;fill-opacity:1;stroke:none;stroke-width:26.515;stroke-miterlimit:4;stroke-dasharray:none;stroke-dashoffset:0;stroke-opacity:1"
     id="rect1175"
     width="4.278492"
     height="292.94589"
     x="438.66187"
     y="102.26524" />
  <rect
     style="opacity:0.998285;fill:#4b2009;fill-opacity:1;stroke:none;stroke-width:26.5152;stroke-miterlimit:4;stroke-dasharray:none;stroke-dashoffset:0;stroke-opacity:1"
     id="rect1177"
     width="1084.0282"
     height="3.2818484"
     x="440.67526"
     y="102.35923" />
  <path
     id="rect1179"
     style="opacity:0.998285;fill:#a24514;fill-opacity:1;stroke:none;stroke-width:26.5152;stroke-miterlimit:4;stroke-dasharray:none;stroke-dashoffset:0;stroke-opacity:1"
     d="M 442.92791,391.91711 H 1524.6171 v 3.28185 l -1085.9596,0.0359 z"
     sodipodi:nodetypes="ccccc" />
  <path
     id="rect1181"
     style="opacity:0.998285;fill:#a24514;fill-opacity:1;stroke:none;stroke-width:26.515;stroke-miterlimit:4;stroke-dasharray:none;stroke-dashoffset:0;stroke-opacity:1"
     d="m 1524.6811,102.36988 -4.3389,3.26083 v 286.41781 h 4.2785 z"
     sodipodi:nodetypes="ccccc" />
  <path
     style="fill:none;fill-rule:evenodd;stroke:#4b2009;stroke-width:0.21212122;stroke-linecap:butt;stroke-linejoin:miter;stroke-opacity:1;fill-opacity:1;stroke-miterlimit:4;stroke-dasharray:none"
     d="m 1520.3423,392.04853 4.2748,3.15044"
     id="path1185" />
  <text
     xml:space="preserve"
     style="font-style:normal;font-variant:normal;font-weight:normal;font-stretch:normal;font-size:45.2525px;line-height:38.5676px;font-family:'Open Sans';-inkscape-font-specification:'Open Sans';letter-spacing:0px;word-spacing:0px;fill:#000000;fill-opacity:1;stroke:none;stroke-width:1.06061px;stroke-linecap:butt;stroke-linejoin:miter;stroke-opacity:1"
     x="197.74478"
     y="180.99547"
     id="text1197"><tspan
       sodipodi:role="line"
       id="tspan1195"
       x="197.74478"
       y="180.99547"
       style="font-size:45.2525px;stroke-width:1.06061px">viewport</tspan></text>
  <text
     xml:space="preserve"
     style="font-style:normal;font-variant:normal;font-weight:normal;font-stretch:normal;font-size:45.2525px;line-height:38.5676px;font-family:'Open Sans';-inkscape-font-specification:'Open Sans';letter-spacing:0px;word-spacing:0px;fill:#000000;fill-opacity:1;stroke:none;stroke-width:1.06061px;stroke-linecap:butt;stroke-linejoin:miter;stroke-opacity:1"
     x="889.17926"
     y="169.52132"
     id="text1201"><tspan
       sodipodi:role="line"
       id="tspan1199"
       x="889.17926"
       y="169.52132"
       style="font-size:45.2525px;stroke-width:1.06061px">viewBox</tspan></text>
  <text
     id="text910"
     y="60.942242"
     x="30.250536"
     style="font-style:normal;font-variant:normal;font-weight:normal;font-stretch:normal;font-size:45.2525px;line-height:38.5676px;font-family:'Open Sans';-inkscape-font-specification:'Open Sans';letter-spacing:0px;word-spacing:0px;fill:#000000;fill-opacity:1;stroke:none;stroke-width:1.06061px;stroke-linecap:butt;stroke-linejoin:miter;stroke-opacity:1"
     xml:space="preserve"><tspan
       style="font-size:45.2525px;stroke-width:1.06061px"
       y="60.942242"
       x="30.250536"
       id="tspan908"
       sodipodi:role="line">SVG image</tspan></text>
</svg>
